# xmcd
#
# Track frame offsets:
#	150
#	23517
#	43506
#	65427
#	83834
#	105760
#	121930
#	143198
#	170097
#	188754
#	212678
#
# Disc length: 2983 seconds
# Revision: 0
# Processed by: cddbd v1.5.2PL0 Copyright (c) Steve Scherf et al.
# Submitted via: dBpowerAMP V12.0
#
DISCID=890ba50b
DTITLE=Various Artist - Eleven Eleven
DYEAR=2011
DGENRE=Country
TTITLE0=Dave Alvin - Harlan County Line
TTITLE1=Dave Alvin - Johnny Ace Is Dead
TTITLE2=Dave Alvin - Black Rose Of Texas
TTITLE3=Dave Alvin - Gary, Indiana 1959
TTITLE4=Dave Alvin - Run Conejo Run
TTITLE5=Dave Alvin - No Worries Mija
TTITLE6=Dave Alvin with Phil Alvin - What's Up With Your Brother?
TTITLE7=Dave Alvin - Murrietta's Head
TTITLE8=Dave Alvin with Christy McWilson - Manzanita
TTITLE9=Dave Alvin - Dirty Nightgown
TTITLE10=Dave Alvin with Chris Gaffney - Two Lucky Bums
EXTD=
EXTT0=
EXTT1=
EXTT2=
EXTT3=
EXTT4=
EXTT5=
EXTT6=
EXTT7=
EXTT8=
EXTT9=
EXTT10=
PLAYORDER=
